# xmcd CD database file
#
# Track frame offsets:
#	150
#	15478
#	30894
#	47108
#	61895
#	77998
#	95696
#	117477
#	133042
#	145373
#	160321
#	174667
#	191441
#	206983
#	222166
#	244612
#	263105
#	284947
#	300440
#	318674
#
# Disc length: 4455 seconds
#
# Revision: 0
# Processed by: cddbd v1.5.1PL0 Copyright (c) Steve Scherf et al.
# Submitted via: CDex 1.51
#
DISCID=2c116514
DTITLE=Various Artist - アニメージュ魔法少女コレクション
DYEAR=2003
DGENRE=Anime
TTITLE0=太田貴子/デリケートに好きして
TTITLE1=太田貴子/パジャマのままで
TTITLE2=太田貴子/囁いてジュテーム-Je t'aime-
TTITLE3=太田貴子/LOVEさりげなく
TTITLE4=太田貴子/ハートのSEASON
TTITLE5=太田貴子/ガールズ・トーク
TTITLE6=岡本舞子/見知らぬ国のトリッパー
TTITLE7=岡本舞子/ラブリードリーム
TTITLE8=MIMA/おしゃれめさるな
TTITLE9=富永みーな/だいすきシンバ
TTITLE10=小幡洋子/不思議色ハピネス
TTITLE11=小幡洋子/あなただけDreaming
TTITLE12=小幡洋子/不思議色ハピネス　−　アルバムバージョン
TTITLE13=志賀真理子/金のリボンでRockして
TTITLE14=志賀真理子/フリージアの少年
TTITLE15=増田直美/DESTINY LIGHT
TTITLE16=小森まなみ/トワイライト★ドリーム
TTITLE17=大森玲子/LaLaLa〜くちびるに願いをこめて〜
TTITLE18=大森玲子/しあわせなき・ぶ・ん
TTITLE19=デリケートに好きして〜オリジナル・カラオケ〜
EXTD=YEAR: 2003
EXTT0=
EXTT1=
EXTT2=
EXTT3=
EXTT4=
EXTT5=
EXTT6=
EXTT7=
EXTT8=
EXTT9=
EXTT10=
EXTT11=
EXTT12=
EXTT13=
EXTT14=
EXTT15=
EXTT16=
EXTT17=
EXTT18=
EXTT19=
PLAYORDER=
